<svg width="36" height="24" viewBox="0 0 36 24" fill="none" xmlns="http://www.w3.org/2000/svg">
<rect x="1.03824" y="0.250153" width="34.4537" height="23.4897" rx="2.75169" fill="white" stroke="#D9D9D9" stroke-width="0.500307"/>
<line x1="22.8733" y1="19.8564" x2="22.8733" y2="3.96906" stroke="white" stroke-width="0.540506"/>
<rect x="3.99365" y="4.18311" width="27.3964" height="15.7005" fill="black"/>
<line x1="5.03101" y1="19.8833" x2="5.03101" y2="3.99591" stroke="white" stroke-width="0.180169"/>
<line x1="30.5503" y1="19.8833" x2="30.5503" y2="3.99591" stroke="white" stroke-width="0.180169"/>
<line x1="6.63576" y1="20.0701" x2="6.63576" y2="4.18268" stroke="white" stroke-width="0.720675"/>
<line x1="8.13747" y1="20.0701" x2="8.13747" y2="4.18268" stroke="white" stroke-width="0.720675"/>
<line x1="9.91603" y1="20.0701" x2="9.91603" y2="4.18268" stroke="white" stroke-width="0.540506"/>
<line x1="11.417" y1="20.0701" x2="11.417" y2="4.18268" stroke="white" stroke-width="0.540506"/>
<line x1="13.9617" y1="20.0701" x2="13.9617" y2="4.18268" stroke="white" stroke-width="1.08101"/>
<line x1="15.9131" y1="19.8833" x2="15.9131" y2="3.99591" stroke="white" stroke-width="0.180169"/>
<line x1="17.5193" y1="20.0701" x2="17.5193" y2="4.18268" stroke="white" stroke-width="0.720675"/>
<line x1="19.0205" y1="20.0701" x2="19.0205" y2="4.18268" stroke="white" stroke-width="0.720675"/>
<line x1="20.7993" y1="20.0701" x2="20.7993" y2="4.18268" stroke="white" stroke-width="0.540506"/>
<line x1="22.3008" y1="20.0701" x2="22.3008" y2="4.18268" stroke="white" stroke-width="0.540506"/>
<line x1="27.0891" y1="19.8833" x2="27.0891" y2="3.99591" stroke="white" stroke-width="0.720675"/>
<line x1="29.2437" y1="19.8833" x2="29.2437" y2="3.99591" stroke="white" stroke-width="0.540506"/>
<line x1="24.8445" y1="20.0701" x2="24.8445" y2="4.18268" stroke="white" stroke-width="1.08101"/>
</svg>