<svg width="36" height="24" viewBox="0 0 36 24" fill="none" xmlns="http://www.w3.org/2000/svg">
<rect x="0.365131" y="0.249896" width="34.4857" height="23.4903" rx="2.74886" fill="#1F72CD" stroke="#D9D9D9" stroke-width="0.499793"/>
<path fill-rule="evenodd" clip-rule="evenodd" d="M6.38757 8.49634L3.11426 15.7401H7.03288L7.51867 14.5851H8.62909L9.11488 15.7401H13.4282V14.8586L13.8125 15.7401H16.0437L16.428 14.8399V15.7401H25.3985L26.4893 14.6151L27.5106 15.7401L32.1181 15.7494L28.8344 12.1384L32.1181 8.49634H27.5821L26.5203 9.60051L25.5311 8.49634H15.7724L14.9344 10.366L14.0768 8.49634H10.1663V9.34784L9.73133 8.49634H6.38757ZM7.14579 9.52496H9.05591L11.2271 14.437V9.52496H13.3196L14.9965 13.0469L16.5421 9.52496H18.6241V14.7228H17.3572L17.3469 10.6498L15.4999 14.7228H14.3667L12.5094 10.6498V14.7228H9.90321L9.40912 13.5575H6.73975L6.24669 14.7218H4.85031L7.14579 9.52496ZM24.9345 9.52496H19.7832V14.7198H24.8547L26.4894 12.9981L28.0649 14.7198H29.7119L27.318 12.1374L29.7119 9.52496H28.1364L26.51 11.2268L24.9345 9.52496ZM8.07528 10.4043L7.19583 12.4802H8.95371L8.07528 10.4043ZM21.0554 11.5502V10.6013V10.6004H24.2697L25.6722 12.1179L24.2075 13.6437H21.0554V12.6078H23.8657V11.5502H21.0554Z" fill="white"/>
</svg>