<svg width="36" height="24" viewBox="0 0 36 24" fill="none" xmlns="http://www.w3.org/2000/svg">
<rect x="0.922748" y="0.249896" width="34.4857" height="23.4903" rx="2.74886" fill="white" stroke="#D9D9D9" stroke-width="0.499793"/>
<path d="M8.66876 9.22146C8.9695 9.12286 9.29121 9.06933 9.62596 9.06933C11.0869 9.06933 12.3055 10.0873 12.585 11.4397L14.6552 11.0256C14.1802 8.72719 12.1093 6.99707 9.62596 6.99707C9.0574 6.99707 8.51014 7.08793 7.99927 7.25531L8.66876 9.22146Z" fill="#FECA2F"/>
<path d="M6.20516 15.8822L7.44471 14.2817C6.89141 13.7221 6.54219 12.905 6.54219 11.9943C6.54219 11.0842 6.89109 10.2672 7.44422 9.70798L6.20403 8.10767C5.26386 9.05849 4.67139 10.4474 4.67139 11.9943C4.67139 13.542 5.26472 14.9314 6.20516 15.8822" fill="#1BA7DE"/>
<path d="M12.5857 12.5503C12.3052 13.9024 11.0873 14.9191 9.62771 14.9191C9.29282 14.9191 8.97047 14.8655 8.66972 14.7665L7.99927 16.7337C8.51093 16.9019 9.05837 16.9929 9.62771 16.9929C12.1088 16.9929 14.1783 15.264 14.6552 12.9664L12.5857 12.5503Z" fill="#EC412A"/>
<path fill-rule="evenodd" clip-rule="evenodd" d="M24.6164 8.10767V13.7956L25.6371 14.2047L25.1543 15.3266L24.1449 14.9208C23.9179 14.8257 23.7643 14.6807 23.6476 14.5169C23.5355 14.3493 23.4525 14.1203 23.4525 13.8112V8.10767H24.6164ZM16.8749 12.3351C16.9002 10.7085 18.2854 9.41014 19.9663 9.43506C21.3929 9.4567 22.575 10.423 22.8854 11.7081L17.3677 13.9886C17.0472 13.5148 16.8651 12.9447 16.8749 12.3351ZM18.1376 12.5629C18.1301 12.4947 18.1247 12.4247 18.1267 12.3541C18.1426 11.3958 18.9581 10.6311 19.9484 10.647C20.4874 10.6539 20.9661 10.8926 21.2896 11.2621L18.1376 12.5629ZM21.1728 13.619C20.8403 13.9318 20.3893 14.1224 19.8914 14.1155C19.5501 14.11 19.2339 14.0112 18.965 13.8466L18.2985 14.8736C18.755 15.1526 19.2932 15.3177 19.8735 15.3264C20.7182 15.3386 21.4881 15.0177 22.0479 14.4879L21.1728 13.619ZM28.864 10.6472C28.6652 10.6472 28.4741 10.6783 28.2956 10.7363L27.8984 9.58539C28.2015 9.48751 28.5262 9.43434 28.864 9.43434C30.3382 9.43434 31.5681 10.447 31.8501 11.7922L30.6206 12.0345C30.4549 11.2429 29.7314 10.6472 28.864 10.6472ZM26.8453 14.5873L27.676 13.6788C27.305 13.3612 27.0713 12.8973 27.0713 12.3802C27.0713 11.8636 27.305 11.3999 27.6757 11.0825L26.8443 10.1741C26.214 10.7139 25.8169 11.5025 25.8169 12.3802C25.8169 13.2589 26.2143 14.0473 26.8453 14.5873ZM28.8645 14.1142C29.7311 14.1142 30.4545 13.5191 30.6212 12.7286L31.8503 12.972C31.5669 14.3158 30.3374 15.327 28.8645 15.327C28.5264 15.327 28.2014 15.2737 27.8974 15.1753L28.2955 14.0249C28.4744 14.0827 28.6656 14.1142 28.8645 14.1142Z" fill="black"/>
</svg>