<svg width="36" height="24" viewBox="0 0 36 24" fill="none" xmlns="http://www.w3.org/2000/svg">
<rect x="0.807514" y="0.249896" width="34.4857" height="23.4903" rx="2.74886" fill="white" stroke="#D9D9D9" stroke-width="0.499793"/>
<path fill-rule="evenodd" clip-rule="evenodd" d="M22.6725 19.0217C26.4396 19.0217 29.4934 15.9324 29.4934 12.1216C29.4934 8.31073 26.4396 5.22144 22.6725 5.22144C20.9841 5.22144 19.439 5.84198 18.2479 6.86992C17.0568 5.842 15.5117 5.22147 13.8234 5.22147C10.0563 5.22147 7.00244 8.31076 7.00244 12.1216C7.00244 15.9324 10.0563 19.0217 13.8234 19.0217C15.5117 19.0217 17.0568 18.4012 18.2479 17.3732C19.439 18.4011 20.9841 19.0217 22.6725 19.0217Z" fill="#ED0006"/>
<path fill-rule="evenodd" clip-rule="evenodd" d="M18.2478 17.373C19.7142 16.1074 20.644 14.2243 20.644 12.1216C20.644 10.0188 19.7142 8.13571 18.2478 6.87011C19.4389 5.84206 20.9841 5.22144 22.6726 5.22144C26.4397 5.22144 29.4935 8.31073 29.4935 12.1216C29.4935 15.9324 26.4397 19.0217 22.6726 19.0217C20.9841 19.0217 19.4389 18.4011 18.2478 17.373Z" fill="#F9A000"/>
<path fill-rule="evenodd" clip-rule="evenodd" d="M18.2482 17.3736C19.7149 16.108 20.6449 14.2247 20.6449 12.1217C20.6449 10.0187 19.7149 8.13548 18.2482 6.86987C16.7816 8.13548 15.8516 10.0187 15.8516 12.1217C15.8516 14.2247 16.7816 16.108 18.2482 17.3736Z" fill="#FF5E00"/>
</svg>