<svg width="35" height="24" viewBox="0 0 35 24" fill="none" xmlns="http://www.w3.org/2000/svg">
<rect x="0.249896" y="0.249896" width="34.4857" height="23.4903" rx="2.74886" fill="white" stroke="#D9D9D9" stroke-width="0.499793"/>
<path d="M19.0372 19.4919C22.9331 19.5107 26.4891 16.2854 26.4891 12.3619C26.4891 8.07168 22.9331 5.10582 19.0372 5.10742H15.6842C11.7419 5.10582 8.49658 8.07248 8.49658 12.3619C8.49658 16.2862 11.7419 19.5107 15.6842 19.4919H19.0372Z" fill="#0079BE"/>
<path d="M15.7005 5.70166C12.0977 5.70286 9.17869 8.6495 9.17749 12.2864C9.17869 15.9228 12.0977 18.8695 15.7005 18.8707C19.3038 18.8695 22.224 15.9228 22.2244 12.2864C22.224 8.6495 19.3042 5.70286 15.7005 5.70166ZM11.566 12.2864C11.5653 11.4455 11.8182 10.6239 12.2918 9.9291C12.7653 9.23426 13.4375 8.69844 14.2204 8.39167V16.1807C13.4374 15.8741 12.7652 15.3384 12.2916 14.6436C11.818 13.9488 11.5651 13.1272 11.566 12.2864V12.2864ZM17.1803 16.1823V8.39127C17.9638 8.6976 18.6365 9.23338 19.1104 9.92845C19.5843 10.6235 19.8373 11.4455 19.8363 12.2868C19.8372 13.128 19.5841 13.9499 19.1102 14.6449C18.6363 15.34 17.9637 15.8758 17.1803 16.1823V16.1823Z" fill="white"/>
<path d="M19.0372 19.4919C22.9331 19.5107 26.4891 16.2854 26.4891 12.3619C26.4891 8.07168 22.9331 5.10582 19.0372 5.10742H15.6842C11.7419 5.10582 8.49658 8.07248 8.49658 12.3619C8.49658 16.2862 11.7419 19.5107 15.6842 19.4919H19.0372Z" fill="#0079BE"/>
<path d="M15.7005 5.70166C12.0977 5.70286 9.17869 8.6495 9.17749 12.2864C9.17869 15.9228 12.0977 18.8695 15.7005 18.8707C19.3038 18.8695 22.224 15.9228 22.2244 12.2864C22.224 8.6495 19.3042 5.70286 15.7005 5.70166ZM11.566 12.2864C11.5653 11.4455 11.8182 10.6239 12.2918 9.9291C12.7653 9.23426 13.4375 8.69844 14.2204 8.39167V16.1807C13.4374 15.8741 12.7652 15.3384 12.2916 14.6436C11.818 13.9488 11.5651 13.1272 11.566 12.2864V12.2864ZM17.1803 16.1823V8.39127C17.9638 8.6976 18.6365 9.23338 19.1104 9.92845C19.5843 10.6235 19.8373 11.4455 19.8363 12.2868C19.8372 13.128 19.5841 13.9499 19.1102 14.6449C18.6363 15.34 17.9637 15.8758 17.1803 16.1823V16.1823Z" fill="white"/>
</svg>