<svg width="35" height="24" viewBox="0 0 35 24" fill="none" xmlns="http://www.w3.org/2000/svg">
<rect x="0.249896" y="0.249896" width="34.4857" height="23.4903" rx="2.74886" fill="white" stroke="#D9D9D9" stroke-width="0.499793"/>
<path fill-rule="evenodd" clip-rule="evenodd" d="M10.6208 16.2517H8.50132L6.912 10.1883C6.83656 9.90941 6.67639 9.66283 6.44078 9.54662C5.8528 9.25457 5.20487 9.02214 4.49805 8.90491V8.67147H7.9123C8.38352 8.67147 8.73693 9.02214 8.79583 9.42939L9.62046 13.8031L11.7389 8.67147H13.7994L10.6208 16.2517ZM14.9772 16.2517H12.9756L14.6238 8.67147H16.6254L14.9772 16.2517ZM19.2153 10.7714C19.2743 10.3631 19.6277 10.1296 20.04 10.1296C20.6879 10.071 21.3937 10.1883 21.9827 10.4793L22.3361 8.84725C21.7471 8.61381 21.0992 8.49658 20.5112 8.49658C18.5685 8.49658 17.1548 9.54655 17.1548 11.0038C17.1548 12.1124 18.1561 12.6944 18.863 13.0451C19.6277 13.3948 19.9222 13.6282 19.8633 13.9779C19.8633 14.5023 19.2743 14.7358 18.6863 14.7358C17.9794 14.7358 17.2726 14.561 16.6257 14.2689L16.2723 15.902C16.9791 16.193 17.7438 16.3102 18.4507 16.3102C20.629 16.3678 21.9827 15.3189 21.9827 13.7444C21.9827 11.7617 19.2153 11.6455 19.2153 10.7714V10.7714ZM28.9879 16.2517L27.3986 8.67147H25.6915C25.3381 8.67147 24.9847 8.90491 24.8669 9.25457L21.9238 16.2517H23.9844L24.3956 15.1441H26.9274L27.163 16.2517H28.9879ZM25.9856 10.7126L26.5736 13.5694H24.9254L25.9856 10.7126Z" fill="#172B85"/>
</svg>