<svg width="35" height="24" viewBox="0 0 35 24" fill="none" xmlns="http://www.w3.org/2000/svg">
<g clip-path="url(#clip0_1_4)">
<path d="M31.7368 0H2.74886C1.23071 0 0 1.23071 0 2.74886V20.7414C0 22.2596 1.23071 23.4903 2.74886 23.4903H31.7368C33.255 23.4903 34.4857 22.2596 34.4857 20.7414V2.74886C34.4857 1.23071 33.255 0 31.7368 0Z" fill="white" stroke="#D9D9D9" stroke-width="0.499793"/>
<path d="M14.1896 15.8625C14.0849 15.8625 14.0001 15.7777 14.0001 15.673V9.8242C14.0001 8.58972 15.005 7.58542 16.24 7.58542L18.0575 7.58812C19.2886 7.59057 20.2901 8.59356 20.2901 9.82391V11.3427C20.2901 12.5772 19.2853 13.5815 18.0501 13.5815H15.1974C15.0927 13.5815 15.0078 13.4966 15.0078 13.3921C15.0078 13.2875 15.0927 13.2026 15.1974 13.2026H18.0501C19.0762 13.2026 19.911 12.3683 19.911 11.3427V9.82391C19.911 8.80198 19.0793 7.9691 18.0569 7.967L16.2397 7.9643C15.214 7.9643 14.3791 8.79868 14.3791 9.8242V15.673C14.3791 15.7777 14.2943 15.8625 14.1896 15.8625" fill="#231F20"/>
<path d="M22.2381 13.609C22.1334 13.609 22.0485 13.5242 22.0485 13.4196V8.61502C22.0485 8.2558 21.756 7.96347 21.3966 7.96347H20.6084C20.5037 7.96347 20.4189 7.87865 20.4189 7.77405C20.4189 7.6694 20.5037 7.58464 20.6084 7.58464H21.3966C21.9652 7.58464 22.4277 8.04684 22.4277 8.61502V13.4196C22.4277 13.5242 22.3427 13.609 22.2381 13.609Z" fill="#231F20"/>
<path d="M22.0691 7.102L21.7116 6.74475C21.6229 6.65604 21.6229 6.51236 21.7116 6.42365L22.0688 6.06658C22.1577 5.97781 22.3017 5.97781 22.3905 6.06658L22.7478 6.42365C22.8365 6.51236 22.8365 6.65604 22.7478 6.74475L22.3903 7.102C22.3016 7.19065 22.1578 7.19065 22.0691 7.102" fill="#231F20"/>
<path d="M24.5226 13.5815H23.7408C23.6362 13.5815 23.5513 13.4967 23.5513 13.3921C23.5513 13.2875 23.6362 13.2026 23.7408 13.2026H24.5226C24.877 13.2026 25.2102 13.0647 25.4607 12.8143L27.2892 11.0208C27.4395 10.8705 27.6394 10.7877 27.8521 10.7877C28.0647 10.7877 28.2646 10.8705 28.4149 11.0208L30.2367 12.8076C30.4872 13.0581 30.8204 13.196 31.1748 13.196H31.8105C31.9151 13.196 32 13.2808 32 13.3854C32 13.4901 31.9151 13.5749 31.8105 13.5749H31.1748C30.7192 13.5749 30.2909 13.3975 29.9686 13.0754L28.1469 11.2887C28.0681 11.21 27.9634 11.1666 27.8521 11.1666C27.7407 11.1666 27.636 11.21 27.5573 11.2887L25.7288 13.0821C25.4066 13.4042 24.9783 13.5815 24.5226 13.5815" fill="#231F20"/>
<path d="M24.5226 7.58464H23.7408C23.6362 7.58464 23.5513 7.6694 23.5513 7.77405C23.5513 7.87865 23.6362 7.96346 23.7408 7.96346H24.5226C24.877 7.96346 25.2102 8.10139 25.4607 8.35182L27.2892 10.1454C27.4395 10.2956 27.6394 10.3784 27.8521 10.3784C28.0647 10.3784 28.2646 10.2956 28.4149 10.1454L30.2367 8.35853C30.4872 8.10804 30.8204 7.97018 31.1748 7.97018H31.8105C31.9151 7.97018 32 7.8853 32 7.78071C32 7.67611 31.9151 7.59129 31.8105 7.59129H31.1748C30.7192 7.59129 30.2909 7.76866 29.9686 8.09066L28.1469 9.87749C28.0681 9.95613 27.9634 9.99959 27.8521 9.99959C27.7407 9.99959 27.636 9.95613 27.5573 9.87749L25.7288 8.08395C25.4066 7.762 24.9783 7.58464 24.5226 7.58464" fill="#231F20"/>
<path d="M4.20137 14.2312C4.5937 14.2312 4.96271 14.0784 5.24014 13.8013L6.74006 12.3022C6.84532 12.1967 7.02889 12.197 7.13414 12.3022L8.63952 13.8068C8.91701 14.084 9.28596 14.2366 9.67836 14.2366H9.97391L8.07427 16.1352C7.48096 16.7283 6.51912 16.7283 5.92579 16.1352L4.02068 14.2312H4.20137Z" fill="#231F20"/>
<path d="M9.67839 8.92851C9.28599 8.92851 8.91704 9.08124 8.63955 9.35841L7.13417 10.8633C7.0258 10.9716 6.84876 10.9721 6.74009 10.8631L5.24016 9.36386C4.96274 9.0867 4.59372 8.93403 4.2014 8.93403H4.02075L5.92582 7.02995C6.51915 6.43701 7.48099 6.43701 8.0743 7.02995L9.97388 8.92851H9.67839Z" fill="#231F20"/>
<path d="M2.44496 10.5089L3.57971 9.37477H4.20137C4.47199 9.37477 4.73688 9.48446 4.92809 9.67573L6.42796 11.1748C6.56836 11.3151 6.75278 11.3853 6.93701 11.3853C7.12143 11.3853 7.30572 11.3151 7.44606 11.175L8.95161 9.67027C9.14281 9.479 9.40771 9.36931 9.67836 9.36931H10.4149L11.5551 10.5089C12.1484 11.1019 12.1484 12.0633 11.5551 12.6563L10.4149 13.7958L9.67836 13.7959C9.40771 13.7959 9.14281 13.6862 8.95161 13.4949L7.44624 11.9903C7.17408 11.7186 6.69982 11.7185 6.42796 11.9905L4.92809 13.4894C4.73688 13.6807 4.47199 13.7904 4.20137 13.7904H3.57964L2.44496 12.6563C1.85168 12.0633 1.85168 11.1019 2.44496 10.5089" fill="#231F20"/>
<path d="M15.3846 15.0055C15.2976 15.0055 15.1946 15.0285 15.0951 15.054V15.476C15.1649 15.5041 15.2438 15.5168 15.3194 15.5168C15.5128 15.5168 15.6033 15.4443 15.6033 15.2599C15.6033 15.0832 15.5276 15.0055 15.3846 15.0055V15.0055ZM15.0104 15.8156V14.9382H15.0802L15.0859 14.9764C15.1775 14.9522 15.3045 14.9204 15.3972 14.9204C15.4704 14.9204 15.5426 14.9331 15.6021 14.9865C15.6707 15.0488 15.6924 15.1494 15.6924 15.2587C15.6924 15.3756 15.6571 15.4824 15.5643 15.5409C15.4979 15.5828 15.4098 15.5981 15.3297 15.5981C15.2507 15.5981 15.174 15.5855 15.0951 15.56V15.8156H15.0104Z" fill="#231F20"/>
<path d="M16.153 15.0019C15.9607 15.0019 15.876 15.0679 15.876 15.2548C15.876 15.4367 15.9595 15.518 16.153 15.518C16.3429 15.518 16.4287 15.4519 16.4287 15.265C16.4287 15.0832 16.3441 15.0019 16.153 15.0019V15.0019ZM16.4139 15.5295C16.3464 15.5828 16.2571 15.5981 16.153 15.5981C16.0465 15.5981 15.956 15.5816 15.8908 15.5295C15.8164 15.4722 15.7867 15.3781 15.7867 15.2599C15.7867 15.1429 15.8153 15.0476 15.8908 14.9891C15.956 14.937 16.0465 14.9204 16.153 14.9204C16.2571 14.9204 16.3464 14.937 16.4139 14.9891C16.4894 15.0476 16.5181 15.1429 16.5181 15.2587C16.5181 15.3769 16.4883 15.4722 16.4139 15.5295" fill="#231F20"/>
<path d="M17.3139 15.5803L17.0998 15.0641H17.0952L16.8836 15.5803H16.8022L16.5642 14.9382H16.6569L16.8469 15.4634H16.8515L17.0598 14.9382H17.141L17.355 15.4634H17.3596L17.5451 14.9382H17.6332L17.3951 15.5803H17.3139" fill="#231F20"/>
<path d="M18.017 14.9967C17.8408 14.9967 17.7802 15.0806 17.7687 15.2065H18.2654C18.2597 15.0679 18.1945 14.9967 18.017 14.9967ZM18.0114 15.5981C17.9026 15.5981 17.8282 15.5816 17.7698 15.527C17.7023 15.4621 17.6794 15.368 17.6794 15.2599C17.6794 15.1582 17.7092 15.0488 17.787 14.9852C17.8523 14.9356 17.9335 14.9204 18.017 14.9204C18.0937 14.9204 18.1807 14.9293 18.2518 14.9827C18.3375 15.0476 18.3525 15.157 18.3525 15.2828H17.7676C17.7698 15.4087 17.8099 15.5168 18.0227 15.5168C18.128 15.5168 18.2299 15.4977 18.3239 15.4798V15.5587C18.2243 15.5778 18.1154 15.5981 18.0114 15.5981" fill="#231F20"/>
<path d="M18.4918 15.5803V14.9382H18.5617L18.5674 14.9764C18.6864 14.9433 18.7471 14.9204 18.8535 14.9204C18.8569 14.9204 18.8604 14.9204 18.8638 14.9204V15.0069C18.8569 15.0069 18.849 15.0069 18.8409 15.0069C18.7528 15.0069 18.6967 15.0196 18.5765 15.054V15.5803H18.4918Z" fill="#231F20"/>
<path d="M19.2527 14.9967C19.0765 14.9967 19.0159 15.0806 19.0044 15.2065H19.5012C19.4954 15.0679 19.4301 14.9967 19.2527 14.9967ZM19.247 15.5981C19.1383 15.5981 19.0639 15.5816 19.0055 15.527C18.938 15.4621 18.9151 15.368 18.9151 15.2599C18.9151 15.1582 18.9448 15.0488 19.0227 14.9852C19.0879 14.9356 19.1692 14.9204 19.2527 14.9204C19.3295 14.9204 19.4164 14.9293 19.4874 14.9827C19.5732 15.0476 19.5881 15.157 19.5881 15.2828H19.0033C19.0055 15.4087 19.0455 15.5168 19.2584 15.5168C19.3638 15.5168 19.4656 15.4977 19.5595 15.4798V15.5587C19.46 15.5778 19.3512 15.5981 19.247 15.5981" fill="#231F20"/>
<path d="M20.2832 15.0425C20.2145 15.0145 20.1355 15.0019 20.059 15.0019C19.8655 15.0019 19.7762 15.0743 19.7762 15.2599C19.7762 15.4367 19.8518 15.513 19.9948 15.513C20.0818 15.513 20.1836 15.4901 20.2832 15.4659V15.0425ZM20.2992 15.5803L20.2935 15.5422C20.2008 15.5664 20.0738 15.5981 19.9822 15.5981C19.909 15.5981 19.8368 15.5867 19.7773 15.532C19.7087 15.4697 19.6869 15.3693 19.6869 15.2599C19.6869 15.1429 19.7223 15.0374 19.8151 14.9789C19.8815 14.9356 19.9695 14.9204 20.0509 14.9204C20.1287 14.9204 20.2042 14.9345 20.2832 14.9586V14.6674H20.3679V15.5803H20.2992Z" fill="#231F20"/>
<path d="M21.3353 15.0055C21.2483 15.0055 21.1464 15.0285 21.0457 15.054V15.4748C21.1166 15.5041 21.1944 15.5168 21.27 15.5168C21.4634 15.5168 21.5538 15.4443 21.5538 15.2599C21.5538 15.0832 21.4783 15.0055 21.3353 15.0055ZM21.515 15.5409C21.4486 15.5828 21.3604 15.5981 21.2803 15.5981C21.1944 15.5981 21.1087 15.5816 21.0228 15.5498L21.0193 15.5803H20.9609V14.6674H21.0457V14.9738C21.1373 14.9497 21.2597 14.9204 21.3478 14.9204C21.421 14.9204 21.4932 14.9331 21.5527 14.9866C21.6214 15.0488 21.6432 15.1494 21.6432 15.2587C21.6432 15.3756 21.6076 15.4812 21.515 15.5409Z" fill="#231F20"/>
<path d="M21.7013 15.827V15.7444C21.7334 15.7482 21.7654 15.7507 21.7883 15.7507C21.8696 15.7507 21.9176 15.7252 21.9611 15.6274L21.9806 15.5803L21.675 14.9382H21.7734L22.023 15.476H22.0275L22.2633 14.9382H22.356L22.0356 15.6529C21.976 15.7863 21.9108 15.8333 21.7895 15.8333C21.7608 15.8333 21.7311 15.8308 21.7013 15.827" fill="#231F20"/>
<path d="M23.2753 15.2141H23.051V15.4392H23.2765C23.431 15.4392 23.4894 15.4201 23.4894 15.326C23.4894 15.2255 23.4093 15.2141 23.2753 15.2141ZM23.2341 14.8493H23.051V15.0781H23.2353C23.3875 15.0781 23.4482 15.0578 23.4482 14.9625C23.4482 14.8606 23.3715 14.8493 23.2341 14.8493ZM23.5821 15.5193C23.4996 15.5778 23.4001 15.5803 23.2181 15.5803H22.8759V14.7093H23.2101C23.3669 14.7093 23.463 14.7118 23.5431 14.7652C23.6004 14.8035 23.6232 14.8619 23.6232 14.9382C23.6232 15.0298 23.5889 15.0908 23.4996 15.1315V15.1366C23.6004 15.162 23.6656 15.2193 23.6656 15.3425C23.6656 15.4265 23.6381 15.4812 23.5821 15.5193" fill="#231F20"/>
<path d="M24.3046 15.3108C24.2372 15.3045 24.1685 15.3006 24.0964 15.3006C23.9784 15.3006 23.9373 15.3273 23.9373 15.3871C23.9373 15.443 23.9716 15.4735 24.062 15.4735C24.1375 15.4735 24.228 15.4545 24.3046 15.4354V15.3108ZM24.339 15.5803L24.3344 15.5422C24.236 15.5689 24.1215 15.5981 24.0207 15.5981C23.959 15.5981 23.8926 15.5892 23.8457 15.5511C23.8022 15.5168 23.7816 15.4609 23.7816 15.3959C23.7816 15.3235 23.8102 15.2562 23.8789 15.2218C23.9395 15.1899 24.0207 15.1874 24.0952 15.1874C24.1558 15.1874 24.2372 15.1912 24.3046 15.1964V15.1849C24.3046 15.0844 24.2451 15.0513 24.0826 15.0513C24.0196 15.0513 23.943 15.0551 23.8698 15.0628V14.9331C23.951 14.9255 24.0426 14.9204 24.1181 14.9204C24.2188 14.9204 24.323 14.9293 24.387 14.9802C24.4534 15.0323 24.466 15.1048 24.466 15.2001V15.5803H24.339" fill="#231F20"/>
<path d="M25.1729 15.5803V15.2255C25.1729 15.1086 25.1191 15.0666 25.0229 15.0666C24.9519 15.0666 24.8627 15.087 24.7872 15.1074V15.5803H24.6257V14.9382H24.7574L24.7631 14.9789C24.865 14.9497 24.9783 14.9204 25.0722 14.9204C25.1431 14.9204 25.2152 14.9319 25.2701 14.9866C25.316 15.0323 25.3331 15.0959 25.3331 15.1874V15.5803H25.1729" fill="#231F20"/>
<path d="M25.7562 15.5981C25.6817 15.5981 25.6004 15.5867 25.5409 15.5307C25.47 15.4672 25.4494 15.3667 25.4494 15.2587C25.4494 15.157 25.4791 15.0463 25.5672 14.984C25.6393 14.9319 25.7287 14.9204 25.8214 14.9204C25.8878 14.9204 25.9529 14.9255 26.0251 14.9331V15.0705C25.9667 15.0641 25.8969 15.059 25.8408 15.059C25.6874 15.059 25.6153 15.1124 25.6153 15.2599C25.6153 15.3985 25.6691 15.4583 25.7951 15.4583C25.8683 15.4583 25.9541 15.443 26.0377 15.4252V15.5574C25.9472 15.5778 25.8489 15.5981 25.7562 15.5981" fill="#231F20"/>
<path d="M26.5003 15.0551C26.3469 15.0551 26.2794 15.1086 26.2794 15.2548C26.2794 15.4011 26.3459 15.4634 26.5003 15.4634C26.6526 15.4634 26.7189 15.4112 26.7189 15.265C26.7189 15.1188 26.6537 15.0551 26.5003 15.0551V15.0551ZM26.7772 15.5307C26.7064 15.5842 26.6137 15.5981 26.5003 15.5981C26.3847 15.5981 26.2921 15.5828 26.2222 15.5307C26.1421 15.4722 26.1135 15.3756 26.1135 15.2599C26.1135 15.1442 26.1421 15.0463 26.2222 14.9877C26.2921 14.9356 26.3847 14.9204 26.5003 14.9204C26.6148 14.9204 26.7064 14.9356 26.7772 14.9877C26.8574 15.0463 26.885 15.1442 26.885 15.2587C26.885 15.3744 26.8562 15.4722 26.7772 15.5307Z" fill="#231F20"/>
<path d="M27.7745 15.5981C27.6772 15.5981 27.572 15.5803 27.493 15.5078C27.3991 15.4214 27.3705 15.2879 27.3705 15.1442C27.3705 15.0158 27.4071 14.8633 27.5296 14.7742C27.6245 14.7055 27.7425 14.6916 27.8615 14.6916C27.9485 14.6916 28.0377 14.6979 28.1351 14.7068V14.8633C28.0515 14.8556 27.9485 14.8493 27.8684 14.8493C27.6453 14.8493 27.5502 14.9433 27.5502 15.1442C27.5502 15.3489 27.6383 15.4405 27.8031 15.4405C27.9107 15.4405 28.0308 15.4163 28.1523 15.3883V15.5435C28.0308 15.5702 27.9038 15.5981 27.7745 15.5981" fill="#231F20"/>
<path d="M28.6005 15.0349C28.4667 15.0349 28.4152 15.0883 28.4049 15.1861H28.7939C28.7894 15.0819 28.7344 15.0349 28.6005 15.0349ZM28.5765 15.5981C28.4815 15.5981 28.3956 15.5855 28.3316 15.527C28.2629 15.4634 28.2389 15.368 28.2389 15.2587C28.2389 15.1608 28.2675 15.0513 28.3476 14.9877C28.4186 14.9319 28.509 14.9204 28.6005 14.9204C28.6829 14.9204 28.7802 14.9306 28.8512 14.9852C28.9439 15.0578 28.952 15.1697 28.953 15.3019H28.4036C28.4071 15.3998 28.454 15.4634 28.6165 15.4634C28.7174 15.4634 28.8294 15.4469 28.9245 15.4302V15.5562C28.8134 15.5765 28.6922 15.5981 28.5765 15.5981" fill="#231F20"/>
<path d="M29.6303 15.5803V15.2255C29.6303 15.1086 29.5765 15.0666 29.4803 15.0666C29.4094 15.0666 29.3201 15.087 29.2446 15.1074V15.5803H29.0832V14.9382H29.2148L29.2205 14.9789C29.3224 14.9497 29.4356 14.9204 29.5296 14.9204C29.6005 14.9204 29.6726 14.9319 29.7275 14.9866C29.7733 15.0323 29.7905 15.0959 29.7905 15.1874V15.5803H29.6303" fill="#231F20"/>
<path d="M30.2188 15.5981C30.1411 15.5981 30.07 15.574 30.0311 15.5067C30.0025 15.4609 29.9888 15.3985 29.9888 15.3121V15.0718H29.872V14.9382H29.9888L30.006 14.7437H30.1491V14.9382H30.3768V15.0718H30.1491V15.2777C30.1491 15.3273 30.1524 15.3693 30.165 15.3998C30.1822 15.443 30.2199 15.4595 30.2703 15.4595C30.3082 15.4595 30.354 15.4532 30.3859 15.4469V15.5752C30.3332 15.5867 30.2726 15.5981 30.2188 15.5981" fill="#231F20"/>
<path d="M30.4984 15.5803V14.9382H30.63L30.6358 14.9789C30.7422 14.9458 30.8212 14.9204 30.9219 14.9204C30.9265 14.9204 30.9334 14.9204 30.9425 14.9217V15.0743C30.9242 15.073 30.9024 15.073 30.8864 15.073C30.8075 15.073 30.7479 15.0832 30.6598 15.1061V15.5803H30.4984Z" fill="#231F20"/>
<path d="M31.5046 15.3108C31.437 15.3045 31.3684 15.3006 31.2963 15.3006C31.1784 15.3006 31.1372 15.3273 31.1372 15.3871C31.1372 15.443 31.1715 15.4735 31.262 15.4735C31.3375 15.4735 31.428 15.4545 31.5046 15.4354V15.3108ZM31.5389 15.5803L31.5344 15.5422C31.436 15.5689 31.3215 15.5981 31.2207 15.5981C31.1589 15.5981 31.0925 15.5892 31.0456 15.5511C31.0022 15.5168 30.9816 15.4609 30.9816 15.3959C30.9816 15.3235 31.0101 15.2562 31.0788 15.2218C31.1394 15.1899 31.2207 15.1874 31.2951 15.1874C31.3558 15.1874 31.437 15.1912 31.5046 15.1964V15.1849C31.5046 15.0844 31.4451 15.0513 31.2825 15.0513C31.2196 15.0513 31.1429 15.0551 31.0696 15.0628V14.9331C31.151 14.9255 31.2425 14.9204 31.318 14.9204C31.4187 14.9204 31.5229 14.9293 31.587 14.9802C31.6534 15.0323 31.6659 15.1048 31.6659 15.2001V15.5803H31.5389" fill="#231F20"/>
<path d="M31.8264 15.5803V14.6674H31.9878V15.5803H31.8264Z" fill="#231F20"/>
</g>
<defs>
<clipPath id="clip0_1_4">
<rect width="35" height="24" fill="white"/>
</clipPath>
</defs>
</svg>